HIERARCHY
ROOT Hips
{
    OFFSET 0.000000 0.000000 0.000000
    CHANNELS 6 Xposition Yposition Zposition Zrotation Xrotation Yrotation
    JOINT Spine
    {
        OFFSET -0.000000 7.236184 0.000000
        CHANNELS 3 Zrotation Xrotation Yrotation
        JOINT Spine1
        {
            OFFSET -0.000000 20.420147 0.000000
            CHANNELS 3 Zrotation Xrotation Yrotation
            JOINT Neck
            {
                OFFSET -0.000000 20.336288 1.848754
                CHANNELS 3 Zrotation Xrotation Yrotation
                JOINT Head
                {
                    OFFSET -0.000000 12.354461 -1.764923
                    CHANNELS 3 Zrotation Xrotation Yrotation
                    End Site
                    {
                        OFFSET -0.000000 22.061537 0.000000
                    }
                }
            }
            JOINT LeftShoulder
            {
                OFFSET 3.573296 18.396038 -0.314103
                CHANNELS 3 Zrotation Xrotation Yrotation
                JOINT LeftArm
                {
                    OFFSET 10.880760 0.000000 0.000000
                    CHANNELS 3 Zrotation Xrotation Yrotation
                    JOINT LeftForeArm
                    {
                        OFFSET 27.185530 0.000000 0.000000
                        CHANNELS 3 Zrotation Xrotation Yrotation
                        JOINT LeftHand
                        {
                            OFFSET 27.825975 0.000000 0.000000
                            CHANNELS 3 Zrotation Xrotation Yrotation
                            End Site
                            {
                                OFFSET 13.236923 0.000000 0.000000
                            }
                        }
                    }
                }
            }
            JOINT RightShoulder
            {
                OFFSET -3.474926 18.396038 -0.314103
                CHANNELS 3 Zrotation Xrotation Yrotation
                JOINT RightArm
                {
                    OFFSET -10.880760 0.000000 0.000000
                    CHANNELS 3 Zrotation Xrotation Yrotation
                    JOINT RightForeArm
                    {
                        OFFSET -27.185530 0.000000 0.000000
                        CHANNELS 3 Zrotation Xrotation Yrotation
                        JOINT RightHand
                        {
                            OFFSET -27.825975 0.000000 0.000000
                            CHANNELS 3 Zrotation Xrotation Yrotation
                            End Site
                            {
                                OFFSET -13.236923 0.000000 0.000000
                            }
                        }
                    }
                }
            }
        }
    }
    JOINT LeftUpLeg
    {
        OFFSET 8.824615 0.000000 0.000000
        CHANNELS 3 Zrotation Xrotation Yrotation
        JOINT LeftLeg
        {
            OFFSET -0.000000 -35.111282 0.000000
            CHANNELS 3 Zrotation Xrotation Yrotation
            JOINT LeftFoot
            {
                OFFSET -0.000000 -42.324711 0.000000
                CHANNELS 3 Zrotation Xrotation Yrotation
                JOINT LeftToeBase
                {
                    OFFSET -0.000000 -5.735999 13.236923
                    CHANNELS 3 Zrotation Xrotation Yrotation
                    End Site
                    {
                        OFFSET -0.000000 0.000000 3.529846
                    }
                }
            }
        }
    }
    JOINT RightUpLeg
    {
        OFFSET -8.824615 0.000000 0.000000
        CHANNELS 3 Zrotation Xrotation Yrotation
        JOINT RightLeg
        {
            OFFSET -0.000000 -35.111282 0.000000
            CHANNELS 3 Zrotation Xrotation Yrotation
            JOINT RightFoot
            {
                OFFSET -0.000000 -42.324711 0.000000
                CHANNELS 3 Zrotation Xrotation Yrotation
                JOINT RightToeBase
                {
                    OFFSET -0.000000 -5.735999 13.236923
                    CHANNELS 3 Zrotation Xrotation Yrotation
                    End Site
                    {
                        OFFSET -0.000000 0.000000 3.529846
                    }
                }
            }
        }
    }
}
MOTION
Frames:    6
Frame Time:    0.008333
-6.272805    82.991669    97.945274    -2.678203    -7.659595    -176.017029    2.265155    -8.081737    2.807582    -10.243608    8.631013    3.422657    1.012657    10.388898    -3.474791    -2.685823    -24.538626    -4.605759    12.182884    -2.629697    -15.392440    -19.246111    16.527555    -72.091614    11.508611    5.816523    -11.828284    -1.576500    7.034256    -2.135978    -8.001789    4.432270    13.355612    20.088484    13.499349    51.473228    -16.956791    -7.908637    26.275711    -13.223631    -4.095415    1.329390    2.615872    -15.411859    -2.791590    0.295269    22.534081    4.067140    -9.534164    -7.367625    -14.499467    0.327982    -3.283773    -0.365779    -8.680897    -11.098486    -1.969447    1.478651    19.300770    3.020063    2.409513    -10.327250    -12.322801    -2.159988    -1.559947    2.341218    
-6.003532    82.997002    97.931931    -2.853513    -7.663361    -176.023453    2.421372    -8.102200    2.853708    -10.440453    8.603960    3.469788    0.995900    10.622662    -3.235111    -3.519391    -24.529383    -4.644655    12.081274    -2.490984    -15.177625    -19.604309    16.545752    -71.525818    12.153986    5.904840    -12.230331    -0.409997    7.210869    -2.164151    -7.998423    4.512660    13.337311    20.277918    13.532766    51.348675    -17.074684    -7.818295    26.828285    -12.675641    -3.868859    1.207058    2.652761    -15.390934    -2.775905    0.274067    22.470587    4.160753    -9.699506    -7.138905    -14.616265    0.317000    -3.397755    -0.353609    -8.677027    -11.168568    -2.084301    1.457122    19.453417    3.126289    2.287000    -10.466106    -12.329010    -2.182595    -1.487290    2.365479    
-5.735703    83.008995    97.910286    -3.024895    -7.670406    -176.014954    2.568651    -8.130055    2.891395    -10.614268    8.561154    3.505603    0.983421    10.881151    -2.992464    -4.359365    -24.508049    -4.682388    11.956553    -2.322042    -14.935090    -19.963285    16.614277    -70.870491    12.883579    6.002388    -12.725605    0.977828    7.416396    -2.206014    -7.975892    4.614133    13.268719    20.423130    13.664131    51.152370    -17.265102    -7.704039    27.526396    -12.291327    -3.576004    1.065859    2.691334    -15.357827    -2.758869    0.254518    22.382635    4.243641    -9.857253    -6.889298    -14.733920    0.308416    -3.509877    -0.344108    -8.672252    -11.213139    -2.206072    1.437534    19.568441    3.221368    2.168534    -10.580660    -12.330585    -2.204294    -1.422464    2.388777    
-5.470850    83.026978    97.880424    -3.192731    -7.680912    -175.992371    2.705516    -8.165599    2.920532    -10.765507    8.504173    3.530213    0.973482    11.159554    -2.748618    -5.195015    -24.472645    -4.716630    11.807998    -2.125648    -14.665792    -20.323498    16.729090    -70.128822    13.691144    6.102767    -13.306610    2.590178    7.644821    -2.268951    -7.935697    4.735544    13.150848    20.523619    13.892984    50.887959    -17.535517    -7.562699    28.358177    -12.102691    -3.211558    0.911066    2.730221    -15.311848    -2.740016    0.236711    22.269413    4.315456    -10.007530    -6.621422    -14.852313    0.301804    -3.618518    -0.336801    -8.667215    -11.231850    -2.329390    1.420638    19.644976    3.302950    2.052705    -10.672329    -12.330647    -2.225458    -1.366189    2.411520    
-5.208892    83.050270    97.842468    -3.358314    -7.695372    -175.956970    2.831810    -8.209187    2.941535    -10.895980    8.434339    3.544183    0.963651    11.453983    -2.503941    -6.020067    -24.421299    -4.745108    11.634719    -1.902532    -14.368368    -20.688419    16.883816    -69.301842    14.572220    6.198843    -13.968544    4.431104    7.889402    -2.360071    -7.879825    4.876207    12.984738    20.583666    14.216337    50.558422    -17.893261    -7.391161    29.314356    -12.137780    -2.768757    0.749510    2.768342    -15.252730    -2.718699    0.220753    22.130054    4.376848    -10.151400    -6.336459    -14.972174    0.296296    -3.723181    -0.330721    -8.662255    -11.225889    -2.449839    1.406654    19.684191    3.369259    1.937937    -10.743558    -12.331253    -2.246361    -1.317927    2.434005    
-4.950012    83.078125    97.796654    -3.522584    -7.714225    -175.910370    2.947582    -8.261033    2.954979    -11.007428    8.353210    3.548385    0.952126    11.760588    -2.258987    -6.828985    -24.353729    -4.766123    11.435889    -1.654438    -14.041934    -21.060562    17.072533    -68.390533    15.520628    6.281274    -14.707091    6.497050    8.140598    -2.485009    -7.810263    5.035169    12.771667    20.609564    14.629871    50.166164    -18.345011    -7.188582    30.384592    -12.422215    -2.242751    0.590300    2.805021    -15.180571    -2.695210    0.205876    21.964550    4.429341    -10.289561    -6.036201    -15.093485    0.291135    -3.823914    -0.325023    -8.657827    -11.197157    -2.562081    1.396566    19.688198    3.418443    1.822690    -10.796811    -12.334846    -2.266784    -1.277505    2.455994    
